<svg width="4" height="15" viewBox="0 0 4 15" fill="none" xmlns="http://www.w3.org/2000/svg">
<path d="M3.67999 7.36C3.67999 8.37522 2.85522 9.2 1.84 9.2C0.824779 9.2 0 8.37522 0 7.36C0 6.34478 0.824779 5.52 1.84 5.52C2.85522 5.52 3.67999 6.34478 3.67999 7.36ZM1.84 3.68C2.85522 3.68 3.67999 2.85522 3.67999 1.84C3.67999 0.82478 2.85522 0 1.84 0C0.824779 0 0 0.82478 0 1.84C0 2.85522 0.824779 3.68 1.84 3.68ZM1.84 11.04C0.824779 11.04 0 11.8648 0 12.88C0 13.8952 0.824779 14.72 1.84 14.72C2.85522 14.72 3.67999 13.8952 3.67999 12.88C3.67999 11.8648 2.85522 11.04 1.84 11.04Z" fill="#1D1F22"/>
</svg>
