<?xml version="1.0" encoding="utf-8"?>
<!-- Generator: Adobe Illustrator 24.1.3, SVG Export Plug-In . SVG Version: 6.00 Build 0)  -->
<svg version="1.1" id="Logo" xmlns="http://www.w3.org/2000/svg" xmlns:xlink="http://www.w3.org/1999/xlink" x="0px" y="0px"
	 viewBox="330 220 340 162" style="enable-background:new 330 220 340 162;" xml:space="preserve" width="238" height="59">
<style type="text/css">
	.st0{fill:url(#SVGID_1_);}
	.st1{fill:#F7A46A;}
	.st2{fill:#8A7987;}
</style>
<g>
	<linearGradient id="SVGID_1_" gradientUnits="userSpaceOnUse" x1="221.5423" y1="352.4057" x2="221.5423" y2="247.4655">
		<stop  offset="0" style="stop-color:#F7A46A"/>
		<stop  offset="1" style="stop-color:#EF5853"/>
	</linearGradient>
	<path class="st0" d="M269,343.8l-7.6-66.9c-0.4-3.1-3-5.4-6.1-5.4h-14.6c0-16.9-9-24-20.5-24c-11.5,0-20.5,7.1-20.5,24h-14.6
		c-3.1,0-5.7,2.3-6.1,5.4l-4.4,38.7l0,0c0,0,0,0,0,0l-0.7,6c-0.4,23.9,34.8,5.6,29.7,0.1c-6.5-4.9-14.7-8.5-14.7-8.5s6-6,13.5-6.5
		c2.3-0.1,4.4,0,6.3,0.3c13.5-13.4,22.2-19.8,35.4-19c0.8,14.1-5.6,22-19,35.4c0.3,1.9,0.4,4,0.3,6.3c-0.5,7.6-6.5,13.5-6.5,13.5
		s-3.6-8.3-8.5-14.8c-5.5-5.4-23.4,22-0.9,24.1h6.1h45.6C265.9,352.4,269.5,348.4,269,343.8z M220.2,254.4c7.3,0,13.5,4.5,13.5,17.1
		h-27.1C206.7,258.9,212.9,254.4,220.2,254.4z"/>
	<path class="st1" d="M234.4,298.5l-2.3,4.8c-0.2,0.4-0.2,0.8,0,1.2l2.3,4.8c0.1,0.2-0.1,0.5-0.3,0.4l-4.9-2c-0.3-0.1-0.7-0.1-1,0
		l-4.9,2c-0.2,0.1-0.5-0.2-0.3-0.4l2.4-4.8c0.2-0.4,0.2-0.9,0-1.3l-2.4-4.7c-0.1-0.2,0.1-0.5,0.4-0.4l4.7,2.2c0.4,0.2,0.8,0.2,1.2,0
		l4.8-2.2C234.3,298.1,234.5,298.3,234.4,298.5z"/>
</g>
<g>
	<path class="st2" d="M358.6,294.8c0-12.6-9.4-23.1-28-23.1h-25.4c-2.4,0-4,1.5-4,3.8v61.6c0,4.8,7.8,4.8,7.8-0.1v-20.8h20.8
		l21.7,23.5c3.5,3.6,9.4-1.1,5.4-5.2l-17.4-18.8C352.7,313.5,358.6,305.7,358.6,294.8z M330.7,309.4H309v-30.5h21.7
		c12.5,0,19.9,7.1,20,15.9C350.9,302.9,344.8,309.4,330.7,309.4z"/>
	<path class="st2" d="M402.3,285.6c-2.8-0.8-5.4-1-7.9-1c-2.7,0-5.6,0.2-8.2,1c-11.8,3.3-18.8,13.3-19.9,25.2
		c-0.3,8,1.7,14.9,6.5,20.6c5.3,6.3,12.9,9.7,21.5,9.7c8.5,0,16.2-3.3,21.5-9.7c4.7-5.7,6.9-12.6,6.4-20.6
		C421.3,298.8,414,288.9,402.3,285.6z M409.8,326.7c-3.8,4.3-9.7,7.1-15.5,7.1c-5.9,0-11.6-2.6-15.3-7.1c-3.2-3.8-4.7-8.8-4.7-13.6
		c0-9.7,5.3-18,14.3-20.4c1.6-0.4,3.7-0.8,5.7-0.8c2,0,4.2,0.3,5.9,0.8c9.1,2.4,14.4,10.8,14.4,20.6
		C414.6,317.9,412.9,323.1,409.8,326.7z"/>
	<path class="st2" d="M474.3,327.1c-3.8,5.2-10,7.1-15.7,7.1c-5.8,0-11.7-2.5-15.5-7.1c-3.2-3.9-4.6-9.3-4.6-14.2
		c0-12.2,7.9-21.8,19.6-21.8c5.4,0,10.8,1.8,14.9,6.5c3,3.5,8.8-1,5.7-4.5c-5.8-6.5-12-9.1-19.8-9.1c-16.3,0-27.6,10.8-28.4,26.7
		c-0.4,7.8,1.8,15.5,6.3,21c5.4,6.2,13.5,9.6,21.6,9.6c7.9,0,16-3.1,21.3-9.6C483.4,327.7,476.9,323.5,474.3,327.1z"/>
	<path class="st2" d="M510.8,310.1l20.1-18.6c4.1-3.9-1.4-9.1-5.6-5.4l-19.3,18l-7.4,7.3v-36c0-4.4-7.8-4.4-7.8,0v61.4
		c0,5,7.8,4.8,7.8,0v-16.7l6.3-5.7l21.9,24.6c3.3,4.3,9.8-0.2,6.1-4.6L510.8,310.1z"/>
	<path class="st2" d="M595.2,312.6c-0.2-13.7-7.7-23.6-19.9-26.9h-0.1c-5.3-1.4-11.1-1.5-16.1,0c-20,5.6-25,30.3-13.4,45.5
		c5,6.3,13.4,9.6,21.8,9.6c7,0.1,14.2-1.8,19.1-6.4c4.2-4.3-1.4-8.7-5.2-5.3c-4.2,3.2-9.3,4.5-14.3,4.5c-10.7,0-18.2-7.3-19.6-16.1
		H590c4.4,0,5.5-2.6,5.3-4.9V312.6z M547.3,310.9c0.6-8.7,5.7-15.9,14.3-18.1c3.7-1.1,8.1-1.1,11.6-0.1H573
		c8.4,2.1,14,9.1,14.7,18.2H547.3z"/>
	<path class="st2" d="M630.9,332.6c-1.1,0.6-3.4,1.2-5,1.2c-7.3,0-8.3-6.4-8.3-12.6v-29h11.7c4.8,0,4.8-6.8,0-6.8h-11.7v-9.7
		c0-5-7.7-5.2-7.7,0v9.7h-7.1c-4.7,0-5,6.8,0,6.8h7.1v29c0,10.2,3.1,19.6,16,19.6c2.9,0,5.6-0.3,8.3-1.8
		C638.9,336.4,635.4,330,630.9,332.6z"/>
	<path class="st2" d="M695.6,303c3.6-2.7,5.7-7,5.7-12.1c0-14.5-13.6-19.7-26.3-19.7h-24.6c-3.1,0-5.6,2.4-5.6,5.5v58.6
		c0,3,2.5,5.5,5.6,5.5h27c18.5,0,28.7-7.6,28.7-21.3C706.1,311.9,702.4,306.2,695.6,303z M677.4,330.5h-21.5v-21.2h24.7
		c4.3,0,14.4,1,14.4,10C694.9,326.8,689,330.5,677.4,330.5z M655.9,299.2v-17.8H675c1.6,0,15.3,0.3,15.3,9.5c0,6.8-8.2,8.3-15,8.3
		H655.9z"/>
	<path class="st2" d="M748.9,284.6c-2.5-0.7-5.1-1-8.1-1c-3.3,0-6.1,0.3-8.4,1c-11.6,3.3-19.3,13-20.5,26
		c-0.3,8.5,1.9,15.4,6.7,21.1c5.3,6.4,13.2,10,22.1,10c8.9,0,16.8-3.5,22.1-10c4.8-5.8,7.1-12.9,6.6-21.2
		C768.5,297.8,760.6,287.9,748.9,284.6z M740.8,331.1c-5.2,0-10.3-2.3-13.5-6.3c-2.6-3.1-4.2-7.5-4.2-12.1c0-9,4.9-16.1,12.5-18.1
		c0.9-0.2,2.8-0.7,5.1-0.7c1.6,0,3.6,0.2,5.3,0.7c7.7,2,12.6,9.2,12.6,18.3c0,4.2-1.6,8.8-4.1,11.9
		C751.1,328.7,745.8,331.1,740.8,331.1z"/>
	<path class="st2" d="M824.5,332.7l-18.6-20.5l18.5-20.6c1.7-2.3,1.2-5.2-1.2-7c-2.2-1.6-5.6-1.9-7.6,0.8l-17,19.4l-15.8-19.4
		c-2.2-2.6-5.8-2.3-7.9-0.7c-1.9,1.5-2.8,4.4-0.6,7.3l16.9,20.1l-17.1,20c-1.5,1.6-2,3.6-1.4,5.5c0.6,1.8,2.1,3.2,4,3.6
		c0.4,0.1,0.7,0.1,1.1,0.1c1.6,0,3.1-0.7,4.4-2.1l16.5-20l17.6,20.2c2.4,2.7,5.9,2.3,7.9,0.5C826.1,338.4,826.8,335.3,824.5,332.7z"
		/>
</g>
</svg>
