<svg height="52" width="52" xmlns="http://www.w3.org/2000/svg" fill="none" viewBox="11 7 52 52">
    <g filter="url(#filter0_d)">
        <circle cx="37" cy="33" r="26" fill="#FC5A52"></circle>
    </g>
    <path d="M45.2687 28.6313C44.9251 28.1923 44.3908 27.9255 43.8378 27.9255H32.2192L31.857 26.514C31.6468 25.6935 30.9224 25.1211 30.0825 25.1211H28.1367C27.8125 25.1211 27.5449 25.3879 27.5449 25.7128C27.5449 26.037 27.8117 26.3046 28.1367 26.3046H30.0825C30.3687 26.3046 30.6169 26.4954 30.6929 26.7816L33.0203 36.0542C33.2305 36.8748 33.9549 37.4471 34.7948 37.4471H42.4068C43.246 37.4471 43.9905 36.8748 44.1813 36.0542L45.6122 30.1778C45.7456 29.6427 45.6316 29.0703 45.2687 28.6313L45.2687 28.6313ZM44.4489 29.9094L43.018 35.7859C42.942 36.072 42.6938 36.2628 42.4076 36.2628H34.7948C34.5086 36.2628 34.2604 36.072 34.1844 35.7859L32.5247 29.1278H43.8386C44.0294 29.1278 44.2202 29.2231 44.335 29.3759C44.449 29.528 44.5057 29.7188 44.449 29.9095L44.4489 29.9094Z" fill="white"></path>
    <path d="M35.1967 38.2087C34.1094 38.2087 33.2129 39.1052 33.2129 40.1925C33.2129 41.2798 34.1094 42.1763 35.1967 42.1763C36.284 42.1771 37.1805 41.2805 37.1805 40.1931C37.1805 39.1056 36.284 38.2085 35.1967 38.2085V38.2087ZM35.1967 40.9751C34.7577 40.9751 34.4142 40.6315 34.4142 40.1926C34.4142 39.7536 34.7577 39.41 35.1967 39.41C35.6357 39.41 35.9792 39.7536 35.9792 40.1926C35.9785 40.6129 35.6163 40.9751 35.1967 40.9751Z" fill="white"></path>
    <path d="M41.7592 38.2085C40.6719 38.2085 39.7754 39.105 39.7754 40.1923C39.7754 41.2796 40.6719 42.1761 41.7592 42.1761C42.8465 42.1761 43.743 41.2796 43.743 40.1923C43.7244 39.1057 42.8465 38.2085 41.7592 38.2085ZM41.7592 40.9749C41.3202 40.9749 40.9767 40.6313 40.9767 40.1924C40.9767 39.7534 41.3202 39.4098 41.7592 39.4098C42.1982 39.4098 42.5417 39.7534 42.5417 40.1924C42.5417 40.6127 42.1788 40.9749 41.7592 40.9749Z" fill="white"></path>
    <defs>
        <filter id="filter0_d" x="0" y="0" width="74" height="74" filterUnits="userSpaceOnUse" color-interpolation-filters="sRGB">
            <feFlood flood-opacity="0" result="BackgroundImageFix"></feFlood>
            <feColorMatrix in="SourceAlpha" type="matrix" values="0 0 0 0 0 0 0 0 0 0 0 0 0 0 0 0 0 0 127 0"></feColorMatrix>
            <feOffset dy="4"></feOffset>
            <feGaussianBlur stdDeviation="5.5"></feGaussianBlur>
            <feColorMatrix type="matrix" values="0 0 0 0 0.113725 0 0 0 0 0.121569 0 0 0 0 0.133333 0 0 0 0.1 0"></feColorMatrix>
            <feBlend mode="normal" in2="BackgroundImageFix" result="effect1_dropShadow"></feBlend>
            <feBlend mode="normal" in="SourceGraphic" in2="effect1_dropShadow" result="shape"></feBlend>
        </filter>
    </defs>
</svg>